<?xml version="1.0" encoding="utf-8"?>
<!-- Svg Vector Icons : http://www.onlinewebfonts.com/icon -->
<!DOCTYPE svg PUBLIC "-//W3C//DTD SVG 1.1//EN" "http://www.w3.org/Graphics/SVG/1.1/DTD/svg11.dtd">
<svg version="1.1" xmlns="http://www.w3.org/2000/svg" xmlns:xlink="http://www.w3.org/1999/xlink" x="0px" y="0px" viewBox="0 0 1000 1000" enable-background="new 0 0 1000 1000" xml:space="preserve">
<metadata> Svg Vector Icons : http://www.onlinewebfonts.com/icon </metadata>
<g><g transform="translate(0.000000,512.000000) scale(0.100000,-0.100000)"><path d="M4743.5,4989.2c-310.1-65.1-580-229.7-865.2-528.3c-105.3-109.1-246.9-279.5-312-379c-67-99.5-122.5-181.8-126.3-185.7c-1.9-3.8-93.8,13.4-202.9,36.4c-160.8,34.4-262.2,44-534,44c-403.9,1.9-555.1-26.8-823-155c-151.2-72.7-208.6-114.8-336.9-243.1c-128.2-128.2-170.4-185.7-243.1-336.9c-128.2-268-157-419.2-155-823c0-271.8,9.6-373.2,44-534c23-109.1,40.2-199.1,36.4-202.9c-3.8-1.9-70.8-47.9-149.3-99.5c-199.1-134-273.7-195.2-455.5-375.1C285.7,877.8,100,489.3,100,119.8c0-134,51.7-369.4,109.1-505.3c135.9-312,472.8-687.1,830.7-926.4c99.5-67,181.8-122.5,183.8-124.4c3.8-1.9-11.5-90-32.5-195.2c-51.7-248.8-68.9-660.4-40.2-870.9c49.8-356,168.4-606.8,394.3-832.6c174.2-176.1,363.7-283.3,631.6-356c224-61.3,773.3-61.3,1060.4,1.9c109.1,23,201,40.2,202.9,36.4c3.8-3.8,59.3-86.1,126.3-185.7c241.2-361.7,625.9-704.4,934.1-834.5c143.6-59.3,365.6-105.3,505.3-105.3c229.7,1.9,511.1,93.8,750.3,245c229.7,145.5,614.4,564.6,784.8,853.7c17.2,30.6,32.5,30.6,220.1-9.6c168.4-36.4,256.5-44,555.1-44c302.4,0,377.1,7.7,507.2,42.1c514.9,139.7,849.9,474.7,989.6,989.6c34.5,130.1,42.1,204.8,42.1,507.2c0,296.7-7.7,386.7-42.1,553.2c-24.9,109.1-42.1,201-38.3,202.9c3.8,3.8,86.1,59.4,185.7,126.3c361.7,241.2,704.4,625.9,834.5,934.1C9852.1-238.1,9900-14.2,9900,123.7c0,134-51.7,369.4-109.1,505.3c-135.9,312-472.8,687.1-830.7,926.4c-99.5,67-181.8,122.5-185.7,126.3c-3.8,1.9,13.4,93.8,36.4,202.9c63.2,287.1,63.2,836.4,1.9,1060.4c-132.1,480.4-442.2,815.4-895.8,962.8c-285.2,91.9-771.4,103.4-1163.8,23c-105.3-21.1-193.3-36.4-195.2-32.5c-1.9,1.9-57.4,84.2-124.4,183.8c-157,237.3-459.4,549.3-656.5,681.4C5430.7,4991.1,5093.8,5065.8,4743.5,4989.2z M5183.7,4698.3c252.7-47.9,513-199.1,738.8-428.8c128.3-132.1,375.2-447.9,357.9-459.4c-3.8-3.8-67-26.8-141.7-51.7c-229.7-76.6-601-245-876.6-394.3L5000,3220.6l-245,134c-264.1,143.6-679.5,333-893.9,405.8c-72.7,23-137.8,45.9-141.6,49.8c-3.8,1.9,32.5,59.3,80.4,126.3C4219.1,4524.1,4701.4,4790.1,5183.7,4698.3z M3177.8,3662.8c65.1-13.4,118.7-26.8,118.7-32.5c0-3.8-26.8-59.3-57.4-122.5c-132.1-262.2-312-754.1-394.3-1075.7c-17.2-70.8-42.1-128.2-53.6-128.2c-36.4,0-528.3-153.1-719.7-224c-99.5-36.4-271.8-109.1-380.9-160.8c-109.1-51.7-202.9-91.9-204.8-88.1c-24.9,24.9-67,392.4-65.1,587.6c0,298.6,34.4,459.4,135.9,669.9c135.9,275.6,380.9,474.7,694.8,564.6C2465.8,3716.4,2885,3720.2,3177.8,3662.8z M7670.1,3670.4c338.8-67,625.9-283.3,773.3-581.9c101.4-210.5,135.9-371.3,135.9-671.8c0-201-40.2-560.8-65.1-587.6c-3.8-3.8-61.2,21-126.3,53.6c-262.2,132.1-754.1,312-1075.7,392.4l-126.3,32.5l-32.5,126.3c-80.4,319.7-260.3,813.5-392.4,1073.8c-30.6,63.2-57.4,118.7-57.4,124.4c0,13.4,344.5,68.9,459.4,74.6C7331.3,3712.5,7524.7,3699.1,7670.1,3670.4z M6548.5,3308.7c101.4-227.8,216.3-549.3,285.2-790.5c36.4-126.3,36.4-137.8,7.7-130.2c-42.1,13.4-591.4,101.5-733.1,118.7c-99.5,9.6-128.3,26.8-329.2,178c-120.6,91.9-281.4,208.6-356,260.3l-137.8,93.8l44,34.5c168.4,128.2,1054.6,509.1,1098.7,472.8C6441.3,3536.4,6494.9,3429.2,6548.5,3308.7z M3865,3461.8c227.8-88,725.4-329.2,807.7-390.5l42.1-32.5l-103.4-68.9c-57.4-38.3-216.3-153.1-350.3-256.5l-246.9-185.7l-296.7-44c-162.7-24.9-361.8-57.4-440.2-72.7c-78.5-15.3-145.5-24.9-147.4-24.9c0,1.9,28.7,103.4,65.1,224c84.2,281.4,178,530.2,283.3,758c65.1,139.7,91.9,179.9,122.5,179.9C3621.9,3547.9,3740.6,3509.6,3865,3461.8z M5235.4,2715.3c112.9-80.4,204.8-147.4,204.8-149.3c0-1.9-197.1-3.8-440.2-3.8c-241.2,0-440.2,1.9-440.2,3.8c0,17.2,415.4,292.8,440.2,292.8C5017.2,2858.9,5122.5,2793.8,5235.4,2715.3z M5809.6,2234.9c53.6-9.6,112.9-49.8,239.3-158.9c275.6-241.2,570.4-532.1,819.2-809.7l233.5-264.1l17.2-128.2c19.1-168.4,19.1-1336,0-1502.6c-15.3-128.2-19.1-132.1-181.8-315.8c-210.5-241.2-629.7-660.4-870.9-870.9c-183.8-162.7-187.6-166.5-315.8-181.8c-166.5-19.1-1334.1-19.1-1500.6,0c-124.4,15.3-134,21.1-296.7,162.7c-216.3,185.7-723.5,692.9-909.2,909.2c-141.6,162.7-147.4,172.3-162.7,296.7c-7.7,70.8-15.3,407.7-15.3,750.3s7.7,679.5,15.3,750.3c15.3,124.4,21.1,134,162.7,296.7c294.8,336.9,880.5,909.2,1056.6,1033.6c23,15.3,120.6,34.4,235.4,44C4538.7,2263.6,5683.3,2254,5809.6,2234.9z M3277.3,1854c-172.3-172.3-315.8-312-317.7-310.1c-5.7,3.8,88,516.8,93.8,524.5c5.7,3.8,486.2,95.7,520.6,99.5C3583.6,2169.8,3451.5,2028.2,3277.3,1854z M6711.2,2112.4c114.8-21.1,216.3-44,225.8-53.6c15.3-15.3,114.8-520.6,103.3-520.6c-1.9,0-143.6,141.6-315.8,313.9c-225.8,225.9-300.5,312-268,306.3C6481.5,2154.5,6596.3,2133.4,6711.2,2112.4z M2693.6,1739.1c-24.9-135.9-55.5-331.1-67-434.5l-23-183.7l-166.5-220.1c-91.9-120.6-208.6-281.4-260.3-356L2083,406.9l-32.5,44c-109.1,143.6-476.6,970.4-476.6,1070c0,63.2,451.7,258.4,937.9,405.8c120.6,36.4,222,65.1,222,65.1C2735.7,1989.9,2716.5,1876.9,2693.6,1739.1z M7752.4,1842.5c275.6-95.7,654.6-264.1,668-298.6c17.2-45.9-107.2-371.3-279.5-723.5c-93.8-189.5-181.8-359.8-197.1-379c-24.9-32.5-32.5-24.9-120.6,103.4c-53.6,76.6-170.4,237.3-260.3,356c-151.2,199.1-166.5,225.9-178,327.3c-17.2,143.6-105.3,692.9-118.7,735c-7.7,28.7,3.8,28.7,130.1-7.7C7473,1934.4,7633.7,1882.7,7752.4,1842.5z M1361.4,1264.4c68.9-210.5,256.5-625.9,405.8-899.6l134-243.1l-134-245c-143.6-262.2-331.1-677.6-405.8-893.9c-23-72.7-45.9-137.8-49.8-141.6c-11.5-17.2-327.3,229.7-459.4,357.9C383.3-339.6,283.7,181.1,567,684.5c74.6,130.2,202.9,290.9,323.5,400c84.2,78.5,398.1,319.7,415.4,319.7C1311.6,1404.2,1336.5,1341,1361.4,1264.4z M8820.5,1318c895.8-639.3,1018.3-1437.5,327.3-2118.9c-132.1-130.2-447.9-375.1-461.3-357.9c-1.9,3.8-34.4,89.9-68.9,189.5C8512.3-666.9,8276.9-175,8114.2,83.5c-17.2,30.6-17.2,45.9,3.8,80.4c74.6,118.7,258.4,470.8,333,637.4c90,202.9,223.9,549.3,223.9,583.8C8675,1417.6,8692.2,1408,8820.5,1318z M2559.6,121.7c0-241.2-1.9-440.3-3.8-440.3c-17.2,0-292.8,415.4-292.8,440.3c0,24.9,275.6,440.2,292.8,440.2C2557.7,562,2559.6,364.8,2559.6,121.7z M7631.8,299.8c57.4-84.2,105.3-164.6,105.3-178c0-23-174.2-289-252.7-388.6l-44-53.6v442.2v442.2l44-53.6C7507.4,481.6,7574.4,385.9,7631.8,299.8z M2238-385.5c74.6-105.3,187.6-258.4,250.7-340.7c112.9-149.3,114.8-149.3,137.8-335c23-195.2,90-602.9,107.2-658.4c7.7-28.7-3.8-28.7-130.2,7.7c-352.2,99.5-980,346.4-1027.8,405.8C1541.3-1264,1822.7-597.9,2016-263c32.5,55.5,65.1,93.8,72.7,86.1C2096.4-186.4,2163.4-280.2,2238-385.5z M8024.2-337.6c112.9-204.8,262.2-532.1,344.5-761.8l72.7-197.1l-42.1-26.8c-128.2-84.2-671.8-294.7-1003-388.5c-126.3-36.4-137.8-36.4-130.1-7.7c13.4,42.1,101.4,591.5,118.7,735c11.5,101.4,26.8,128.2,178,327.3c89.9,118.7,206.7,277.5,258.4,354.1c53.6,76.6,101.4,132.1,109.1,124.4C7938.1-188.3,7980.2-259.2,8024.2-337.6z M3275.4-1608.6c225.9-225.9,300.5-312,268-306.3c-210.5,32.5-467,86.1-480.4,99.5c-15.3,15.3-114.8,520.6-103.4,520.6C2961.5-1294.7,3103.2-1436.3,3275.4-1608.6z M7036.6-1336.8c-32.5-202.9-86.1-465.1-99.5-478.5c-13.4-13.4-269.9-67-480.4-99.5c-32.5-5.8,42.1,80.4,268,306.3c172.3,172.3,313.9,313.9,315.8,313.9C7042.3-1294.7,7040.4-1313.8,7036.6-1336.8z M1690.6-1675.6c243.1-114.8,622.1-252.7,909.2-331.2l214.4-59.3l32.5-126.3c80.4-319.7,260.3-811.6,392.4-1073.8c32.5-65.1,57.4-122.5,53.6-126.3c-26.8-24.9-386.6-65.1-587.6-65.1c-300.5,0-461.3,34.4-671.8,135.9c-296.7,147.4-511.1,430.7-583.8,773.3c-38.3,183.8-38.3,580,1.9,796.3c17.2,93.8,32.5,170.3,36.4,170.3C1489.6-1581.8,1581.5-1623.9,1690.6-1675.6z M8542.9-1710c42.1-202.9,36.4-769.4-9.6-914.9c-120.6-392.4-377.1-654.6-765.6-779c-170.3-55.5-627.8-68.9-872.8-26.8c-97.6,17.2-181.8,34.5-185.7,38.3c-3.8,1.9,36.4,95.7,88.1,204.8c114.8,243.1,252.6,622.1,331.1,907.3l59.3,214.4l214.4,59.3c289,78.5,668,218.2,899.6,329.2c105.3,51.7,197.1,93.8,202.9,93.8C8512.3-1581.8,8529.5-1639.2,8542.9-1710z M3487.9-2201.9c162.7-26.8,346.4-53.6,405.8-61.3c101.4-11.5,128.2-26.8,327.3-178c118.7-90,279.5-206.7,356-260.3c128.2-88,135.9-95.7,103.4-120.6c-19.1-15.3-189.5-103.4-379-197.1c-352.2-172.3-677.6-296.7-723.5-279.5c-53.6,21.1-302.4,639.3-411.5,1024c-36.4,126.3-36.4,137.8-7.7,130.2C3175.9-2150.3,3325.2-2177.1,3487.9-2201.9z M6833.7-2274.7c-109.1-384.7-357.9-1003-411.5-1024c-36.4-15.3-335,93.8-601,216.3c-224,105.3-491.9,245-520.6,273.7c-7.7,7.6,47.9,55.5,124.4,109.1c76.6,51.7,235.4,168.4,354.1,258.4l214.4,164.6l245,32.5c135.9,19.1,327.3,49.8,426.8,67c99.5,19.1,187.6,36.4,195.2,38.3C6866.2-2138.8,6854.7-2200,6833.7-2274.7z M5428.8-2332.1c-17.2-26.8-407.7-283.3-432.6-283.3c-23,0-436.4,277.5-436.4,292.8c0,1.9,197.1,3.8,438.3,3.8C5239.3-2318.7,5432.6-2324.4,5428.8-2332.1z M5164.6-3067.1c294.8-168.4,876.7-430.7,1066.1-476.6c28.7-7.7,51.7-19.1,51.7-23c0-32.5-239.3-335-359.8-459.4c-312-315.8-652.7-465.1-999.1-440.2c-400,30.6-779,289-1119.7,767.5c-47.9,67-86.1,126.3-86.1,132.1c0,5.7,23,15.3,53.6,23c197.2,47.9,914.9,375.1,1125.5,514.9c42.1,24.9,84.2,47.9,95.7,47.9C5003.8-2979,5080.4-3019.2,5164.6-3067.1z"/><path d="M2090.6,2878v-153.1h153.1h153.1V2878v153.1h-153.1h-153.1V2878z"/><path d="M7603.1,2878v-153.1h153.1h153.1V2878v153.1h-153.1h-153.1V2878z"/><path d="M4655.5,1624.3c-220.1-34.4-446-109.1-583.8-191.4c-147.4-88-210.5-149.3-258.4-250.7c-38.3-76.6-38.3-109.1-34.4-1085.3l5.7-1004.9l57.4-84.2c176.1-248.8,624-407.7,1158-407.7c534,0,981.9,158.9,1158,407.7l57.4,84.2l5.7,1004.9c3.8,976.2,3.8,1008.7-34.5,1085.3C6025.9,1517.1,5302.4,1725.7,4655.5,1624.3z M5532.1,1289.3c199.1-47.9,346.5-132.1,375.2-216.3c40.2-111-126.3-225.9-415.4-292.9c-222-51.7-761.8-51.7-980,0c-260.3,59.3-430.7,162.7-430.7,260.3c0,97.6,174.2,204.8,421.1,256.5c218.2,45.9,237.3,45.9,555.1,40.2C5283.3,1333.3,5396.2,1321.9,5532.1,1289.3z M4559.8,473.9c111-24.9,250.7-34.4,440.2-34.4c319.6-1.9,514.9,32.5,761.8,130.2l157,63.2V514.1c0-145.5-34.5-197.1-178-264.1c-187.6-90-373.2-118.7-740.7-118.7c-367.5,0-553.2,28.7-740.7,118.7c-143.6,67-178,118.7-178,264.1v118.7l158.9-63.2C4326.2,535.2,4469.8,491.2,4559.8,473.9z M4391.3-96.5c446-128.3,960.9-109.1,1370.5,53.6l157,63.2V-98.4c0-145.5-34.5-197.1-178-264.1c-187.6-90-373.2-118.7-740.7-118.7c-367.5,0-553.2,28.7-740.7,118.7c-143.6,67-178,118.7-178,268V26l74.6-38.3C4198-33.3,4303.3-71.6,4391.3-96.5z M4559.8-753c112.9-22.9,246.9-34.5,440.2-34.5c319.6,0,514.9,34.5,761.8,132.1l157,63.2v-118.7c0-145.5-34.5-197.1-178-264.1c-187.6-90-373.2-118.7-740.7-118.7c-367.5,0-553.2,28.7-740.7,118.7c-143.6,67-178,118.7-178,264.1v118.7l158.9-63.2C4326.2-689.8,4469.8-733.9,4559.8-753z"/><path d="M2090.6-2634.5v-153.1h153.1h153.1v153.1v153.1h-153.1h-153.1V-2634.5z"/><path d="M7603.1-2634.5v-153.1h153.1h153.1v153.1v153.1h-153.1h-153.1V-2634.5z"/></g></g>
</svg>