<?xml version="1.0" encoding="utf-8"?>
<!-- Svg Vector Icons : http://www.onlinewebfonts.com/icon -->
<!DOCTYPE svg PUBLIC "-//W3C//DTD SVG 1.1//EN" "http://www.w3.org/Graphics/SVG/1.1/DTD/svg11.dtd">
<svg version="1.1" xmlns="http://www.w3.org/2000/svg" xmlns:xlink="http://www.w3.org/1999/xlink" x="0px" y="0px" viewBox="0 0 1000 1000" enable-background="new 0 0 1000 1000" xml:space="preserve">
<metadata> Svg Vector Icons : http://www.onlinewebfonts.com/icon </metadata>
<g><g transform="translate(0.000000,480.000000) scale(0.100000,-0.100000)"><path d="M4818.2,4374.6c-151.2-23-256.5-55.5-392.4-124.4c-484.3-245-911.1-807.7-1399.2-1850.9l-139.7-302.4h-780.9H1325v-153.1v-153.1h715.9h715.9l-185.7-424.9C2111.7,316.8,1841.8-190.4,1518.3-611.5c-375.2-488.1-813.5-761.8-1288.2-807.7L100-1430.7V-1582v-153.1l153.1,13.4l153.1,13.4v-164.6v-164.6H253.1H100v-153.1v-153.1h4900h4900v153.1v153.1h-153.1h-153.1v164.6v164.6l153.1-13.4l153.1-13.4v155v155h-65.1c-103.3,0-335,49.8-470.8,101.4c-583.8,220.1-1085.3,838.3-1627,2002.1c-84.2,179.9-264.1,583.8-400,895.8C6726.5,2981.2,6450.9,3475,6043.2,3892.3l-191.4,195.2h1412.6H8675v153.1v153.1l-1879.6-1.9C5759.9,4389.9,4871.8,4382.3,4818.2,4374.6z M4846.9,1015.4v-3052.9h-842.2h-842.2V-37.3V1961l76.6,174.2c214.4,488.1,488.1,987.7,702.5,1284.3c128.2,179.9,380.9,428.8,511,505.3c120.6,70.8,296.7,141.6,352.2,143.6h42.1V1015.4z M5459.4,3970.7c223.9-111,488.1-375.2,702.5-700.6c153.1-231.6,421.1-738.8,587.6-1112.1l88-195.2V-37.3v-2000.2h-842.2h-842.2v3054.8v3056.8l72.7-11.5C5264.1,4055,5369.4,4014.8,5459.4,3970.7z M2856.2-401v-1636.5h-153.1H2550l3.8,1326.4l5.7,1324.5l143.6,312c78.5,170.4,145.5,310.1,147.4,310.1C2854.3,1235.5,2856.2,498.6,2856.2-401z M7319.8,862.3L7450,575.2V-730.2v-1307.3h-153.1h-153.1l1.9,1642.3c0,1246.1,5.8,1628.9,23,1592.5C7180.1,1170.5,7249,1021.2,7319.8,862.3z M2243.7-1042.2v-995.3h-153.1h-153.1v750.3v748.4l91.9,145.5c51.7,80.4,118.7,191.4,149.3,245c30.6,55.5,57.4,101.4,61.2,101.4C2241.8-46.9,2243.7-494.8,2243.7-1042.2z M8010.8-458.4l51.7-76.6v-750.3v-752.2h-153.1h-153.1v1001.1v999.1l101.4-172.3C7913.2-303.4,7982.1-416.3,8010.8-458.4z M1631.2-1492v-545.5h-153.1H1325l-3.8,384.7l-5.7,384.7l153.1,157c84.2,88,155,160.8,158.9,160.8C1629.3-948.4,1631.2-1191.5,1631.2-1492z M8678.8-1648.9l-5.7-388.6h-151.2h-153.1v541.7v541.7l158.9-153.1l157-155L8678.8-1648.9z M1018.7-1760v-277.5H865.6H712.5v206.7v204.8l139.7,68.9c74.7,38.3,143.6,68.9,153.1,70.8C1013-1484.3,1018.7-1606.8,1018.7-1760z M9149.7-1559l137.8-65.1v-206.7v-206.7h-153.1h-153.1v279.4c0,153.1,5.7,275.6,15.3,271.8C9004.2-1490.1,9073.1-1522.6,9149.7-1559z"/><path d="M8981.2,4240.6v-153.1h153.1h153.1v153.1v153.1h-153.1h-153.1V4240.6z"/><path d="M9593.7,4240.6v-153.1h153.1H9900v153.1v153.1h-153.1h-153.1V4240.6z"/><path d="M100,1943.8v-153.1h153.1h153.1v153.1v153.1H253.1H100V1943.8z"/><path d="M712.5,1943.8v-153.1h153.1h153.1v153.1v153.1H865.6H712.5V1943.8z"/><path d="M253.1-2803.1v-153.1h153.1h153.1v153.1v153.1H406.2H253.1V-2803.1z"/><path d="M865.6-2803.1v-153.1h153.1h153.1v153.1v153.1h-153.1H865.6V-2803.1z"/><path d="M1478.1-2803.1v-153.1h153.1h153.1v153.1v153.1h-153.1h-153.1V-2803.1z"/><path d="M2090.6-2803.1v-153.1h153.1h153.1v153.1v153.1h-153.1h-153.1V-2803.1z"/><path d="M2703.1-2803.1v-153.1h153.1h153.1v153.1v153.1h-153.1h-153.1V-2803.1z"/><path d="M3315.6-2803.1v-153.1h153.1h153.1v153.1v153.1h-153.1h-153.1V-2803.1z"/><path d="M3928.1-2803.1v-153.1h153.1h153.1v153.1v153.1h-153.1h-153.1V-2803.1z"/><path d="M4540.6-2803.1v-153.1h153.1h153.1v153.1v153.1h-153.1h-153.1V-2803.1z"/><path d="M5153.1-2803.1v-153.1h153.1h153.1v153.1v153.1h-153.1h-153.1V-2803.1z"/><path d="M5765.6-2803.1v-153.1h153.1h153.1v153.1v153.1h-153.1h-153.1V-2803.1z"/><path d="M6378.1-2803.1v-153.1h153.1h153.1v153.1v153.1h-153.1h-153.1V-2803.1z"/><path d="M6990.6-2803.1v-153.1h153.1h153.1v153.1v153.1h-153.1h-153.1V-2803.1z"/><path d="M7603.1-2803.1v-153.1h153.1h153.1v153.1v153.1h-153.1h-153.1V-2803.1z"/><path d="M8215.6-2803.1v-153.1h153.1h153.1v153.1v153.1h-153.1h-153.1V-2803.1z"/><path d="M8828.1-2803.1v-153.1h153.1h153.1v153.1v153.1h-153.1h-153.1V-2803.1z"/><path d="M9440.6-2803.1v-153.1h153.1h153.1v153.1v153.1h-153.1h-153.1V-2803.1z"/><path d="M1478.1-3415.6v-153.1h153.1h153.1v153.1v153.1h-153.1h-153.1V-3415.6z"/><path d="M2090.6-3415.6v-153.1h153.1h153.1v153.1v153.1h-153.1h-153.1V-3415.6z"/><path d="M2703.1-3415.6v-153.1h153.1h153.1v153.1v153.1h-153.1h-153.1V-3415.6z"/><path d="M3315.6-3415.6v-153.1h153.1h153.1v153.1v153.1h-153.1h-153.1V-3415.6z"/><path d="M3928.1-3415.6v-153.1h153.1h153.1v153.1v153.1h-153.1h-153.1V-3415.6z"/><path d="M4540.6-3415.6v-153.1h153.1h153.1v153.1v153.1h-153.1h-153.1V-3415.6z"/><path d="M5153.1-3415.6v-153.1h153.1h153.1v153.1v153.1h-153.1h-153.1V-3415.6z"/><path d="M5765.6-3415.6v-153.1h153.1h153.1v153.1v153.1h-153.1h-153.1V-3415.6z"/><path d="M6378.1-3415.6v-153.1h153.1h153.1v153.1v153.1h-153.1h-153.1V-3415.6z"/><path d="M6990.6-3415.6v-153.1h153.1h153.1v153.1v153.1h-153.1h-153.1V-3415.6z"/><path d="M7603.1-3415.6v-153.1h153.1h153.1v153.1v153.1h-153.1h-153.1V-3415.6z"/><path d="M8215.6-3415.6v-153.1h153.1h153.1v153.1v153.1h-153.1h-153.1V-3415.6z"/><path d="M2703.1-4028.1v-153.1h153.1h153.1v153.1v153.1h-153.1h-153.1V-4028.1z"/><path d="M3315.6-4028.1v-153.1h153.1h153.1v153.1v153.1h-153.1h-153.1V-4028.1z"/><path d="M3928.1-4028.1v-153.1h153.1h153.1v153.1v153.1h-153.1h-153.1V-4028.1z"/><path d="M4540.6-4028.1v-153.1h153.1h153.1v153.1v153.1h-153.1h-153.1V-4028.1z"/><path d="M5153.1-4028.1v-153.1h153.1h153.1v153.1v153.1h-153.1h-153.1V-4028.1z"/><path d="M5765.6-4028.1v-153.1h153.1h153.1v153.1v153.1h-153.1h-153.1V-4028.1z"/><path d="M6378.1-4028.1v-153.1h153.1h153.1v153.1v153.1h-153.1h-153.1V-4028.1z"/><path d="M6990.6-4028.1v-153.1h153.1h153.1v153.1v153.1h-153.1h-153.1V-4028.1z"/><path d="M3928.1-4640.6v-153.1h153.1h153.1v153.1v153.1h-153.1h-153.1V-4640.6z"/><path d="M4540.6-4640.6v-153.1h153.1h153.1v153.1v153.1h-153.1h-153.1V-4640.6z"/><path d="M5153.1-4640.6v-153.1h153.1h153.1v153.1v153.1h-153.1h-153.1V-4640.6z"/><path d="M5765.6-4640.6v-153.1h153.1h153.1v153.1v153.1h-153.1h-153.1V-4640.6z"/></g></g>
</svg>