<?xml version="1.0" encoding="utf-8"?>
<!-- Svg Vector Icons : http://www.onlinewebfonts.com/icon -->
<!DOCTYPE svg PUBLIC "-//W3C//DTD SVG 1.1//EN" "http://www.w3.org/Graphics/SVG/1.1/DTD/svg11.dtd">
<svg version="1.1" xmlns="http://www.w3.org/2000/svg" xmlns:xlink="http://www.w3.org/1999/xlink" x="0px" y="0px" viewBox="0 0 1000 1000" enable-background="new 0 0 1000 1000" xml:space="preserve">
<metadata> Svg Vector Icons : http://www.onlinewebfonts.com/icon </metadata>
<g><g transform="translate(0.000000,512.000000) scale(0.100000,-0.100000)"><path d="M5197.1,4667.9c-317.7-317.7-350.3-356-350.3-415.4s32.5-97.6,352.2-419.2l352.2-352.2l72.7,11.5c90,15.3,120.6,45.9,135.9,134c9.6,68.9,5.7,76.6-178,264.1l-189.5,193.3l105.3-13.4c1686.3-208.6,3058.7-1470,3397.5-3125.7c480.4-2342.8-1127.4-4549.7-3491.3-4789c-126.3-11.5-1119.7-19.1-2750.5-19.1H100v-153.1v-155l2664.4,5.7c2641.4,7.6,2668.2,7.6,2896,47.9c740.7,135.9,1315,380.9,1904.5,817.3c233.5,172.3,681.4,620.1,853.7,853.7c440.2,593.4,691,1182.9,815.4,1914.1c34.5,193.3,42.1,317.7,42.1,650.8c0,333-7.7,457.5-42.1,650.8c-124.4,731.2-375.2,1320.7-815.4,1914.1c-172.3,233.5-620.1,681.4-853.7,853.7c-608.7,449.8-1242.2,715.9-1967.7,823l-235.4,34.5l193.3,193.3c155,155,195.2,206.7,202.9,262.2c9.6,57.4,3.8,78.5-36.4,118.7c-32.5,32.5-70.8,49.8-112.9,49.8C5553.2,5018.2,5507.2,4979.9,5197.1,4667.9z"/><path d="M3949.2,4271.7c-742.7-191.4-1420.2-580-1971.5-1131.2C687.6,1846.6,352.7-80.9,1133.6-1713.6c141.6-296.7,245-467,451.7-742.7c197.1-266.1,421.1-503.4,656.5-700.5c162.7-137.8,499.6-380.9,526.4-380.9c7.7,0,88,116.7,151.2,223.9c9.6,15.3-36.4,57.4-130.2,120.6c-1121.6,758-1770.5,1969.6-1770.5,3311.3c0,1826,1221.2,3403.2,2982.1,3853c139.7,36.4,256.5,68.9,262.2,72.7c5.7,7.7-15.3,145.5-38.3,243.1C4211.4,4338.7,4215.2,4338.7,3949.2,4271.7z"/><path d="M4789.5,1879.1l-268-535.9l268-535.9l268-535.9h631.6h631.6l268,535.9l268,535.9l-268,535.9l-268,535.9h-631.6h-631.6L4789.5,1879.1z M6320.7,1726l191.4-382.8l-191.4-382.8l-191.4-382.8h-440.2h-440.2l-191.4,382.8L4866,1343.2l191.4,382.8l191.4,382.8h440.2h440.2L6320.7,1726z"/><path d="M3822.9,2082c-32.5-13.4-86.1-55.5-118.7-93.8c-112.9-130.2-101.4-283.3,32.5-403.9c132.1-120.6,285.2-109.1,409.6,26.8c114.8,128.2,111,279.5-13.4,398.1C4031.5,2106.9,3933.9,2129.9,3822.9,2082z"/><path d="M2645.7,654.1l-268-535.9l268-535.9l268-535.9h631.6H4177l268,535.9l268,535.9l-268,535.9l-268,535.9h-631.6h-631.6L2645.7,654.1z M4177,501l191.4-382.8L4177-264.6l-191.4-382.8h-440.2h-440.2l-191.4,382.8l-191.4,382.8L2913.7,501l191.4,382.8h440.2h440.2L4177,501z"/><path d="M6885.4,397.6c-32.5-13.4-86.1-55.5-118.7-93.8c-112.9-130.2-101.4-283.3,32.5-403.9c132.1-120.6,285.2-109.1,409.6,26.8c114.8,128.2,111,279.5-13.4,398.1C7094,422.5,6996.4,445.5,6885.4,397.6z"/><path d="M4789.5-570.9l-268-535.9l268-535.9l268-535.9h631.6h631.6l268,535.9l268,535.9l-268,535.9l-268,535.9h-631.6h-631.6L4789.5-570.9z M6320.7-724l191.4-382.8l-191.4-382.8l-191.4-382.8h-440.2h-440.2l-191.4,382.8L4866-1106.8L5057.4-724l191.4,382.8h440.2h440.2L6320.7-724z"/><path d="M3822.9-1286.7c-32.5-13.4-86.1-55.5-118.7-93.8c-112.9-130.1-101.4-283.3,32.5-403.9c132.1-120.6,285.2-109.1,409.6,26.8c114.8,128.2,111,279.5-13.4,398.1C4031.5-1261.8,3933.9-1238.9,3822.9-1286.7z"/><path d="M9029.1-3298.4c-30.6-28.7-47.9-67-47.9-107.2c0-51.7,30.6-91.9,195.2-258.4l195.2-199.1H8334.3H7296.9v-153.1v-153.1h1037.4h1037.4l-195.2-199.1c-164.6-166.5-195.2-206.7-195.2-258.4c0-40.2,17.2-78.5,49.8-111c40.2-40.2,61.3-45.9,118.7-36.4c59.3,9.6,122.5,61.2,409.6,352.2c308.2,308.2,340.7,346.5,340.7,405.8s-32.5,99.5-350.3,415.4c-310.1,312-356,350.3-411.5,350.3C9096.1-3250.6,9059.7-3267.8,9029.1-3298.4z"/></g></g>
</svg>