<svg xmlns="http://www.w3.org/2000/svg" width="355" height="342.5" viewBox="0 0 355 342.5"><defs><clipPath id="a"><path d="M30 12.5h300v300H30z"/></clipPath></defs><path fill="none" stroke="#000" d="M30 312.5v-300M42.5 312.5v-300M55 312.5v-300M67.5 312.5v-300M80 312.5v-300M92.5 312.5v-300M105 312.5v-300M117.5 312.5v-300M130 312.5v-300M142.5 312.5v-300M155 312.5v-300M167.5 312.5v-300M180 312.5v-300M192.5 312.5v-300M205 312.5v-300M217.5 312.5v-300M230 312.5v-300M242.5 312.5v-300M255 312.5v-300M267.5 312.5v-300M280 312.5v-300M292.5 312.5v-300M305 312.5v-300M317.5 312.5v-300M330 312.5v-300M30 312.5h300M30 300h300M30 287.5h300M30 275h300M30 262.5h300M30 250h300M30 237.5h300M30 225h300M30 212.5h300M30 200h300M30 187.5h300M30 175h300M30 162.5h300M30 150h300M30 137.5h300M30 125h300M30 112.5h300M30 100h300M30 87.5h300M30 75h300M30 62.5h300M30 50h300M30 37.5h300M30 25h300M30 12.5h300" stroke-width="2" opacity=".1"/><path fill="none" stroke="#000" d="M30 312.5" stroke-width="2"/><path fill="none" stroke="#000" d="M324.45 318.1c.35-2.1 4.2-5.25 5.25-5.6-1.05-.35-4.9-3.5-5.25-5.6" stroke-width="2" stroke-linejoin="round" stroke-linecap="round"/><path fill="none" stroke="#000" d="M30 312.5h298.95M30 312.5" stroke-width="2"/><path fill="none" stroke="#000" d="M36.35 18.8c-2.1-.35-5.25-4.2-5.6-5.25-.35 1.05-3.5 4.9-5.6 5.25" stroke-width="2" stroke-linejoin="round" stroke-linecap="round"/><path fill="none" stroke="#000" d="M30 312.5V13.55" stroke-width="2"/><path fill="none" stroke="#000" d="M55 317.5v-10M80 317.5v-10M105 317.5v-10M130 317.5v-10M155 317.5v-10M180 317.5v-10M205 317.5v-10M230 317.5v-10M255 317.5v-10M280 317.5v-10M305 317.5v-10M25 287.5h10M25 262.5h10M25 237.5h10M25 212.5h10M25 187.5h10M25 162.5h10M25 137.5h10M25 112.5h10M25 87.5h10M25 62.5h10M25 37.5h10"/><ellipse cx="205" cy="186.5" rx="4" ry="4" stroke="#000" stroke-width="2" clip-path="url(#a)"/><ellipse cx="155" cy="213.75" rx="4" ry="4" stroke="#000" stroke-width="2" clip-path="url(#a)"/><ellipse cx="280" cy="198" rx="4" ry="4" stroke="#000" stroke-width="2" clip-path="url(#a)"/><ellipse cx="180" cy="167.25" rx="4" ry="4" stroke="#000" stroke-width="2" clip-path="url(#a)"/><ellipse cx="230" cy="179.25" rx="4" ry="4" stroke="#000" stroke-width="2" clip-path="url(#a)"/><ellipse cx="305" cy="138.5" rx="4" ry="4" stroke="#000" stroke-width="2" clip-path="url(#a)"/><ellipse cx="105" cy="206.5" rx="4" ry="4" stroke="#000" stroke-width="2" clip-path="url(#a)"/><ellipse cx="55" cy="281" rx="4" ry="4" stroke="#000" stroke-width="2" clip-path="url(#a)"/><ellipse cx="255" cy="116.5" rx="4" ry="4" stroke="#000" stroke-width="2" clip-path="url(#a)"/><ellipse cx="130" cy="267" rx="4" ry="4" stroke="#000" stroke-width="2" clip-path="url(#a)"/><ellipse cx="80" cy="245.5" rx="4" ry="4" stroke="#000" stroke-width="2" clip-path="url(#a)"/><path stroke="#000" d="M30 275l.5-.25.5-.25.5-.25.5-.25.5-.25.5-.25.5-.25.5-.25.5-.25.5-.25.5-.25.5-.25.5-.25.5-.25.5-.25.5-.25.5-.25.5-.25.5-.25.5-.25.5-.25.5-.25.5-.25.5-.25.5-.25.5-.25.5-.25.5-.25.5-.25.5-.25.5-.25.5-.25.5-.25.5-.25.5-.25.5-.25.5-.25.5-.25.5-.25.5-.25.5-.25.5-.25.5-.25.5-.25.5-.25.5-.25.5-.25.5-.25.5-.25.5-.25.5-.25.5-.25.5-.25.5-.25.5-.25.5-.25.5-.25.5-.25.5-.25.5-.25.5-.25.5-.25.5-.25.5-.25.5-.25.5-.25.5-.25.5-.25.5-.25.5-.25.5-.25.5-.25.5-.25.5-.25.5-.25.5-.25.5-.25.5-.25.5-.25.5-.25.5-.25.5-.25.5-.25.5-.25.5-.25.5-.25.5-.25.5-.25.5-.25.5-.25.5-.25.5-.25.5-.25.5-.25.5-.25.5-.25.5-.25.5-.25.5-.25.5-.25.5-.25.5-.25.5-.25.5-.25.5-.25.5-.25.5-.25.5-.25.5-.25.5-.25.5-.25.5-.25.5-.25.5-.25.5-.25.5-.25.5-.25.5-.25.5-.25.5-.25.5-.25.5-.25.5-.25.5-.25.5-.25.5-.25.5-.25.5-.25.5-.25.5-.25.5-.25.5-.25.5-.25.5-.25.5-.25.5-.25.5-.25.5-.25.5-.25.5-.25.5-.25.5-.25.5-.25.5-.25.5-.25.5-.25.5-.25.5-.25.5-.25.5-.25.5-.25.5-.25.5-.25.5-.25.5-.25.5-.25.5-.25.5-.25.5-.25.5-.25.5-.25.5-.25.5-.25.5-.25.5-.25.5-.25.5-.25.5-.25.5-.25.5-.25.5-.25.5-.25.5-.25.5-.25.5-.25.5-.25.5-.25.5-.25.5-.25.5-.25.5-.25.5-.25.5-.25.5-.25.5-.25.5-.25.5-.25.5-.25.5-.25.5-.25.5-.25.5-.25.5-.25.5-.25.5-.25.5-.25.5-.25.5-.25.5-.25.5-.25.5-.25.5-.25.5-.25.5-.25.5-.25.5-.25.5-.25.5-.25.5-.25.5-.25.5-.25.5-.25.5-.25.5-.25.5-.25.5-.25.5-.25.5-.25.5-.25.5-.25.5-.25.5-.25.5-.25.5-.25.5-.25.5-.25.5-.25.5-.25.5-.25.5-.25.5-.25.5-.25.5-.25.5-.25.5-.25.5-.25.5-.25.5-.25.5-.25.5-.25.5-.25.5-.25.5-.25.5-.25.5-.25.5-.25.5-.25.5-.25.5-.25.5-.25.5-.25.5-.25.5-.25.5-.25.5-.25.5-.25.5-.25.5-.25.5-.25.5-.25.5-.25.5-.25.5-.25.5-.25.5-.25.5-.25.5-.25.5-.25.5-.25.5-.25.5-.25.5-.25.5-.25.5-.25.5-.25.5-.25.5-.25.5-.25.5-.25.5-.25.5-.25.5-.25.5-.25.5-.25.5-.25.5-.25.5-.25.5-.25.5-.25.5-.25.5-.25.5-.25.5-.25.5-.25.5-.25.5-.25.5-.25.5-.25.5-.25.5-.25.5-.25.5-.25.5-.25.5-.25.5-.25.5-.25.5-.25.5-.25.5-.25.5-.25.5-.25.5-.25.5-.25.5-.25.5-.25.5-.25.5-.25.5-.25.5-.25.5-.25.5-.25.5-.25.5-.25.5-.25.5-.25.5-.25.5-.25.5-.25.5-.25.5-.25.5-.25.5-.25.5-.25.5-.25.5-.25.5-.25.5-.25.5-.25.5-.25.5-.25.5-.25.5-.25.5-.25.5-.25.5-.25.5-.25.5-.25.5-.25.5-.25.5-.25.5-.25.5-.25.5-.25.5-.25.5-.25.5-.25.5-.25.5-.25.5-.25.5-.25.5-.25.5-.25.5-.25.5-.25.5-.25.5-.25.5-.25.5-.25.5-.25.5-.25.5-.25.5-.25.5-.25.5-.25.5-.25.5-.25.5-.25.5-.25.5-.25.5-.25.5-.25.5-.25.5-.25.5-.25.5-.25.5-.25.5-.25.5-.25.5-.25.5-.25.5-.25.5-.25.5-.25.5-.25.5-.25.5-.25.5-.25.5-.25.5-.25.5-.25.5-.25.5-.25.5-.25.5-.25.5-.25.5-.25.5-.25.5-.25.5-.25.5-.25.5-.25.5-.25.5-.25.5-.25.5-.25.5-.25.5-.25.5-.25.5-.25.5-.25.5-.25.5-.25.5-.25.5-.25.5-.25.5-.25.5-.25.5-.25.5-.25.5-.25.5-.25.5-.25.5-.25.5-.25.5-.25.5-.25.5-.25.5-.25.5-.25.5-.25.5-.25.5-.25.5-.25.5-.25.5-.25.5-.25.5-.25.5-.25.5-.25.5-.25.5-.25.5-.25.5-.25.5-.25.5-.25.5-.25.5-.25.5-.25.5-.25.5-.25.5-.25.5-.25.5-.25.5-.25.5-.25.5-.25.5-.25.5-.25.5-.25.5-.25.5-.25.5-.25.5-.25.5-.25.5-.25.5-.25.5-.25.5-.25.5-.25.5-.25.5-.25.5-.25.5-.25.5-.25.5-.25.5-.25.5-.25.5-.25.5-.25.5-.25.5-.25.5-.25.5-.25.5-.25.5-.25.5-.25.5-.25.5-.25.5-.25.5-.25.5-.25.5-.25.5-.25.5-.25.5-.25.5-.25.5-.25.5-.25.5-.25.5-.25.5-.25.5-.25.5-.25.5-.25.5-.25.5-.25.5-.25.5-.25.5-.25.5-.25.5-.25.5-.25.5-.25.5-.25.5-.25.5-.25.5-.25.5-.25.5-.25.5-.25.5-.25.5-.25.5-.25.5-.25.5-.25.5-.25.5-.25.5-.25.5-.25.5-.25.5-.25.5-.25.5-.25.5-.25.5-.25.5-.25.5-.25.5-.25.5-.25.5-.25.5-.25.5-.25.5-.25.5-.25.5-.25.5-.25.5-.25.5-.25.5-.25.5-.25.5-.25.5-.25.5-.25.5-.25.5-.25.5-.25.5-.25.5-.25.5-.25.5-.25.5-.25.5-.25.5-.25.5-.25.5-.25.5-.25.5-.25.5-.25.5-.25.5-.25.5-.25.5-.25.5-.25.5-.25.5-.25.5-.25.5-.25.5-.25.5-.25.5-.25.5-.25.5-.25.5-.25.5-.25.5-.25.5-.25.5-.25.5-.25.5-.25.5-.25.5-.25.5-.25.5-.25.5-.25.5-.25.5-.25.5-.25.5-.25.5-.25.5-.25.5-.25.5-.25.5-.25.5-.25.5-.25.5-.25.5-.25.5-.25.5-.25.5-.25.5-.25.5-.25.5-.25.5-.25.5-.25.5-.25.5-.25.5-.25.5-.25.5-.25.5-.25.5-.25.5-.25.5-.25.5-.25.5-.25.5-.25.5-.25.5-.25.5-.25.5-.25.5-.25.5-.25.5-.25.5-.25.5-.25.5-.25.5-.25.5-.25.5-.25.5-.25.5-.25.5-.25.5-.25.5-.25.5-.25.5-.25.5-.25.5-.25.5-.25.5-.25.5-.25.5-.25.5-.25.5-.25.5-.25.5-.25.5-.25.5-.25.5-.25.5-.25.5-.25.5-.25.5-.25.5-.25.5-.25.5-.25.5-.25.5-.25.5-.25.5-.25.5-.25.5-.25.5-.25.5-.25.5-.25.5-.25.5-.25.5-.25.5-.25.5-.25.5-.25.5-.25.5-.25.5-.25.5-.25.5-.25.5-.25.5-.25.5-.25.5-.25.5-.25.5-.25.5-.25.5-.25.5-.25.5-.25.5-.25.5-.25.5-.25.5-.25.5-.25.5-.25.5-.25.5-.25.5-.25.5-.25.5-.25.5-.25.5-.25.5-.25.5-.25.5-.25.5-.25.5-.25.5-.25.5-.25.5-.25.5-.25.5-.25.5-.25.5-.25.5-.25.5-.25.5-.25.5-.25.5-.25.5-.25.5-.25.5-.25.5-.25.5-.25.5-.25.5-.25.5-.25.5-.25.5-.25.5-.25.5-.25.5-.25" stroke-width="3" clip-path="url(#a)"/></svg>
